<svg width="40" height="40" viewBox="0 0 40 40" fill="none" xmlns="http://www.w3.org/2000/svg">
<g clip-path="url(#clip0_1_2)">
<path d="M7.08333 0H32.9167C36.8333 0 40 3.24786 40 7.26496V32.735C40 36.7521 36.8333 40 32.9167 40H7.08333C3.16667 40 0 36.7521 0 32.735V7.26496C0 3.24786 3.16667 0 7.08333 0Z" fill="#001E36"/>
<path d="M9 28.0513V10.4615C9 10.3419 9.05 10.2735 9.16667 10.2735C9.45 10.2735 9.71667 10.2735 10.1 10.2564C10.5 10.2393 10.9167 10.2393 11.3667 10.2222C11.8167 10.2051 12.3 10.2051 12.8167 10.188C13.3333 10.1709 13.8333 10.1709 14.3333 10.1709C15.7 10.1709 16.8333 10.3419 17.7667 10.7009C18.6 10.9915 19.3667 11.4701 20 12.1026C20.5333 12.6496 20.95 13.3162 21.2167 14.0513C21.4667 14.7692 21.6 15.5043 21.6 16.2735C21.6 17.7436 21.2667 18.9573 20.6 19.9145C19.9333 20.8718 19 21.5897 17.9167 22C16.7833 22.4274 15.5333 22.5812 14.1667 22.5812C13.7667 22.5812 13.5 22.5812 13.3333 22.5641C13.1667 22.547 12.9333 22.547 12.6167 22.547V28.0342C12.6333 28.1539 12.55 28.2564 12.4333 28.2735C12.4167 28.2735 12.4 28.2735 12.3667 28.2735H9.2C9.06667 28.2735 9 28.2051 9 28.0513ZM12.6333 13.5727V19.3162C12.8667 19.3333 13.0833 19.3504 13.2833 19.3504H14.1667C14.8167 19.3504 15.4667 19.2479 16.0833 19.0427C16.6167 18.8889 17.0833 18.5641 17.45 18.1368C17.8 17.7094 17.9667 17.1282 17.9667 16.3761C17.9833 15.8462 17.85 15.3162 17.5833 14.8547C17.3 14.4103 16.9 14.0684 16.4167 13.8803C15.8 13.6239 15.1333 13.5214 14.45 13.5385C14.0167 13.5385 13.6333 13.5385 13.3167 13.5556C12.9833 13.5385 12.75 13.5556 12.6333 13.5727Z" fill="#31A8FF"/>
<path d="M32 18.2735C31.5 18 30.9667 17.812 30.4 17.6923C29.7833 17.5556 29.1667 17.4701 28.5333 17.4701C28.2 17.453 27.85 17.5043 27.5333 17.5897C27.3167 17.641 27.1333 17.7607 27.0167 17.9316C26.9333 18.0684 26.8833 18.2393 26.8833 18.3932C26.8833 18.547 26.95 18.7009 27.05 18.8376C27.2 19.0256 27.4 19.1795 27.6167 19.2992C28 19.5043 28.4 19.6923 28.8 19.8633C29.7 20.1709 30.5667 20.5983 31.3667 21.1111C31.9167 21.4701 32.3667 21.9487 32.6833 22.5299C32.95 23.0769 33.0833 23.6752 33.0667 24.2906C33.0833 25.094 32.85 25.8974 32.4167 26.5641C31.95 27.2479 31.3 27.7778 30.55 28.0855C29.7333 28.4445 28.7333 28.6325 27.5333 28.6325C26.7667 28.6325 26.0167 28.5641 25.2667 28.4103C24.6833 28.3077 24.1 28.1197 23.5667 27.8633C23.45 27.7949 23.3667 27.6752 23.3833 27.5385V24.5641C23.3833 24.5128 23.4 24.4445 23.45 24.4103C23.5 24.3761 23.55 24.3932 23.6 24.4274C24.25 24.8205 24.9333 25.094 25.6667 25.265C26.3 25.4359 26.9667 25.5214 27.6333 25.5214C28.2667 25.5214 28.7167 25.4359 29.0167 25.2821C29.2833 25.1624 29.4667 24.8718 29.4667 24.5641C29.4667 24.3248 29.3333 24.1026 29.0667 23.8803C28.8 23.6581 28.25 23.4017 27.4333 23.0769C26.5833 22.7692 25.8 22.359 25.0667 21.8462C24.55 21.4701 24.1167 20.9744 23.8 20.3932C23.5333 19.8462 23.4 19.2479 23.4167 18.6496C23.4167 17.9145 23.6167 17.2137 23.9833 16.5812C24.4 15.8974 25.0167 15.3504 25.7333 15.0086C26.5167 14.5983 27.5 14.4103 28.6833 14.4103C29.3667 14.4103 30.0667 14.4615 30.75 14.5641C31.25 14.6325 31.7333 14.7692 32.1833 14.9573C32.25 14.9744 32.3167 15.0427 32.35 15.1111C32.3667 15.1795 32.3833 15.2479 32.3833 15.3162V18.1026C32.3833 18.1709 32.35 18.2393 32.3 18.2735C32.15 18.3077 32.0667 18.3077 32 18.2735Z" fill="#31A8FF"/>
</g>
<defs>
<clipPath id="clip0_1_2">
<rect width="40" height="40" fill="white"/>
</clipPath>
</defs>
</svg>
