<svg width="40" height="40" viewBox="0 0 40 40" fill="none" xmlns="http://www.w3.org/2000/svg">
<g clip-path="url(#clip0_2_12)">
<path d="M7.08333 0H32.9167C36.8333 0 40 3.24786 40 7.26496V32.735C40 36.7521 36.8333 40 32.9167 40H7.08333C3.16667 40 0 36.7521 0 32.735V7.26496C0 3.24786 3.16667 0 7.08333 0Z" fill="#330000"/>
<path d="M19.3333 23.9316H13.1333L11.8667 27.9487C11.8333 28.1026 11.7 28.2051 11.55 28.188H8.41666C8.23333 28.188 8.18333 28.0855 8.23333 27.8803L13.6 12.0342C13.65 11.8632 13.7 11.6752 13.7667 11.4701C13.8333 11.1111 13.8667 10.735 13.8667 10.359C13.85 10.2735 13.9167 10.188 14 10.1709H18.3167C18.45 10.1709 18.5167 10.2222 18.5333 10.3077L24.6167 27.9145C24.6667 28.1026 24.6167 28.188 24.45 28.188H20.9667C20.85 28.2051 20.7333 28.1197 20.7 28L19.3333 23.9316ZM14.1 20.4615H18.3333C18.2333 20.1026 18.1 19.6752 17.95 19.2308C17.8 18.7692 17.65 18.2735 17.5 17.7607C17.3333 17.2308 17.1833 16.7179 17.0167 16.188C16.85 15.6581 16.7 15.1624 16.5667 14.6667C16.4333 14.188 16.3167 13.7436 16.2 13.3333H16.1667C16.0167 14.0684 15.8333 14.8034 15.6 15.5385C15.35 16.359 15.1 17.2137 14.8333 18.0684C14.6 18.9402 14.35 19.7436 14.1 20.4615ZM28.3333 13.1624C27.7833 13.1795 27.25 12.9573 26.85 12.5641C26.4667 12.1368 26.2667 11.5727 26.2833 10.9915C26.2667 10.4103 26.4833 9.86325 26.8833 9.47009C27.2833 9.07692 27.8167 8.8718 28.3667 8.8718C29.0167 8.8718 29.5167 9.07692 29.8833 9.47009C30.25 9.88034 30.45 10.4274 30.4333 10.9915C30.45 11.5727 30.25 12.1368 29.85 12.5641C29.4667 12.9744 28.9 13.1966 28.3333 13.1624ZM26.4667 28V14.8376C26.4667 14.6667 26.5333 14.5983 26.6833 14.5983H29.9833C30.1333 14.5983 30.2 14.6838 30.2 14.8376V28C30.2 28.188 30.1333 28.2735 29.9833 28.2735H26.7167C26.55 28.2735 26.4667 28.1709 26.4667 28Z" fill="#FF9A00"/>
</g>
<defs>
<clipPath id="clip0_2_12">
<rect width="40" height="40" fill="white"/>
</clipPath>
</defs>
</svg>
