<svg width="40" height="40" viewBox="0 0 40 40" fill="none" xmlns="http://www.w3.org/2000/svg">
<path d="M0 0V33.6C0 35.2974 0.674284 36.9252 1.87452 38.1255C3.07475 39.3257 4.70261 40 6.4 40H33.6C35.2974 40 36.9252 39.3257 38.1255 38.1255C39.3257 36.9252 40 35.2974 40 33.6V6.4C40 4.70261 39.3257 3.07475 38.1255 1.87452C36.9252 0.674284 35.2974 0 33.6 0L0 0ZM23.76 21.8C26.36 21.8 27.56 23.6 27.6 26.2H24.92C24.96 25.72 24.84 25.2 24.68 24.8C24.52 24.48 24.2 24.36 23.76 24.36C23 24.36 22.6 24.8 22.6 25.76C22.56 26.72 23.08 27.24 23.88 27.56C25.08 28.04 26.56 28.8 27.08 29.72C27.56 30.44 27.8 31.36 27.8 32.48C27.8 35.16 26.28 36.8 23.64 36.8C20.88 36.8 19.64 35.08 19.6 32.32H22.4C22.4 33.64 22.84 34.28 23.72 34.28C24.16 34.28 24.48 34.16 24.64 33.88C24.96 33.36 25.04 31.92 24.56 31.36C24.04 30.68 23.04 30.36 22.36 30C21.44 29.56 20.76 29.04 20.32 28.44C19.92 27.84 19.72 26.96 19.72 25.88C19.72 23.48 21.28 21.76 23.76 21.8ZM32.76 21.8C35.4 21.8 36.6 23.6 36.64 26.2H33.96C33.96 25.72 33.88 25.2 33.68 24.8C33.52 24.48 33.24 24.36 32.8 24.36C32 24.36 31.6 24.8 31.6 25.76C31.6 26.72 32.08 27.24 32.92 27.56C34.08 28.04 35.6 28.8 36.12 29.72C36.56 30.44 36.8 31.36 36.8 32.48C36.84 35.16 35.32 36.8 32.68 36.8C29.88 36.8 28.64 35.04 28.6 32.32H31.4C31.4 33.56 31.84 34.28 32.72 34.28C33.16 34.28 33.48 34.16 33.64 33.88C34 33.36 34.08 31.92 33.56 31.36C33.08 30.68 32.08 30.36 31.36 30C30.44 29.56 29.76 29.04 29.36 28.44C28.96 27.84 28.76 26.96 28.76 25.88C28.72 23.48 30.28 21.76 32.76 21.8ZM14.375 21.83C15.56 21.82 16.74 22.16 17.44 22.88C18.16 23.6 18.56 24.76 18.52 26.2H15.56C15.6 25.44 15.4 24.88 14.84 24.6C14.32 24.36 13.56 24.52 13.36 25C13.16 25.44 13.04 25.96 13.08 26.44V32.28C13.08 33.52 13.52 34.16 14.36 34.16C14.5377 34.1678 14.7146 34.1318 14.875 34.055C15.0355 33.9783 15.1746 33.8632 15.28 33.72C15.56 33.32 15.6 32.8 15.56 32.32H18.52C18.68 35.04 16.88 36.84 14.24 36.8C11.68 36.8 10.08 35.36 10.12 32.68V25.96C10.12 24.6 10.52 23.56 11.28 22.88C12 22.2 13.19 21.84 14.375 21.83Z" fill="#663399"/>
</svg>
