<svg width="40" height="40" viewBox="0 0 40 40" fill="none" xmlns="http://www.w3.org/2000/svg">
<path d="M18.5767 0H25.1167V30.2767C21.7617 30.9133 19.2983 31.1683 16.6233 31.1683C8.63834 31.1683 4.47667 27.5583 4.47667 20.635C4.47667 13.965 8.89334 9.635 15.7317 9.635C16.7933 9.635 17.6 9.71833 18.5767 9.97333V0ZM18.5767 15.2383C17.8657 14.9982 17.1186 14.8831 16.3683 14.8983C13.055 14.8983 11.145 16.9367 11.145 20.5067C11.145 23.99 12.9717 25.9 16.3267 25.9C17.0483 25.9 17.6433 25.8583 18.5767 25.73V15.2383ZM35.5233 10.1V25.2633C35.5233 30.4867 35.1417 32.9933 33.995 35.1583C32.9333 37.24 31.5317 38.5567 28.6433 40L22.57 37.1117C25.4583 35.7533 26.86 34.5617 27.7517 32.7367C28.6867 30.8683 28.9833 28.7017 28.9833 23.0117V10.0983L35.5233 10.1ZM28.9833 0.035H35.5233V6.745H28.9833V0.035Z" fill="#187F58"/>
</svg>
