<svg width="40" height="40" viewBox="0 0 40 40" fill="none" xmlns="http://www.w3.org/2000/svg">
<path d="M23.305 18.4633H26.8367C26.9186 18.4633 26.9972 18.4309 27.0553 18.3731C27.1134 18.3153 27.1462 18.2369 27.1467 18.155V15.01C27.1467 14.9278 27.114 14.8489 27.0559 14.7908C26.9977 14.7327 26.9189 14.7 26.8367 14.7H23.305C23.2232 14.7 23.1448 14.7325 23.087 14.7903C23.0292 14.8481 22.9967 14.9266 22.9967 15.0083V18.155C22.9967 18.325 23.135 18.4633 23.305 18.4633ZM18.3817 9.41334H21.9117C21.9939 9.41334 22.0727 9.38068 22.1309 9.32254C22.189 9.26441 22.2217 9.18556 22.2217 9.10334V5.95668C22.2212 5.87475 22.1884 5.79633 22.1303 5.73855C22.0722 5.68078 21.9936 5.64834 21.9117 5.64835H18.3817C18.2999 5.64835 18.2215 5.68083 18.1637 5.73865C18.1058 5.79648 18.0733 5.8749 18.0733 5.95668V9.10334C18.0733 9.27334 18.21 9.41334 18.3817 9.41334ZM18.3817 13.9383H21.9117C21.9938 13.9379 22.0724 13.9051 22.1304 13.8471C22.1884 13.789 22.2212 13.7104 22.2217 13.6283V10.4833C22.2212 10.4014 22.1884 10.323 22.1303 10.2652C22.0722 10.2074 21.9936 10.175 21.9117 10.175H18.3817C18.2999 10.175 18.2215 10.2075 18.1637 10.2653C18.1058 10.3231 18.0733 10.4016 18.0733 10.4833V13.6283C18.0733 13.7983 18.21 13.9367 18.3817 13.9383ZM13.4984 13.9383H17.0317C17.1133 13.9375 17.1913 13.9044 17.2487 13.8464C17.3062 13.7883 17.3384 13.71 17.3383 13.6283V10.4833C17.3383 10.4016 17.3059 10.3231 17.248 10.2653C17.1902 10.2075 17.1118 10.175 17.03 10.175H13.5C13.4182 10.175 13.3398 10.2075 13.282 10.2653C13.2242 10.3231 13.1917 10.4016 13.1917 10.4833V13.6283C13.1917 13.7983 13.33 13.9367 13.5 13.9383M8.56002 13.9383H12.0917C12.1736 13.9379 12.252 13.905 12.3098 13.847C12.3676 13.7889 12.4 13.7103 12.4 13.6283V10.4833C12.4 10.4016 12.3675 10.3231 12.3097 10.2653C12.2519 10.2075 12.1735 10.175 12.0917 10.175H8.56002C8.47809 10.175 8.39949 10.2074 8.34141 10.2652C8.28332 10.323 8.25046 10.4014 8.25002 10.4833V13.6283C8.25002 13.7983 8.39002 13.9367 8.56002 13.9383ZM18.3817 18.4633H21.9117C21.9936 18.4633 22.0722 18.4309 22.1303 18.3731C22.1884 18.3153 22.2212 18.2369 22.2217 18.155V15.01C22.2217 14.9278 22.189 14.8489 22.1309 14.7908C22.0727 14.7327 21.9939 14.7 21.9117 14.7H18.3817C18.2999 14.7 18.2215 14.7325 18.1637 14.7903C18.1058 14.8481 18.0733 14.9266 18.0733 15.0083V18.155C18.0733 18.325 18.21 18.4633 18.3817 18.4633ZM13.4984 18.4633H17.0317C17.1132 18.4629 17.1912 18.4302 17.2486 18.3724C17.3061 18.3147 17.3384 18.2365 17.3383 18.155V15.01C17.3386 14.9695 17.3308 14.9294 17.3155 14.8919C17.3002 14.8544 17.2777 14.8203 17.2492 14.7915C17.2207 14.7627 17.1869 14.7398 17.1496 14.7241C17.1122 14.7084 17.0722 14.7002 17.0317 14.7H13.4984C13.4169 14.7004 13.3389 14.7331 13.2814 14.7909C13.2239 14.8487 13.1917 14.9268 13.1917 15.0083V18.155C13.1917 18.325 13.33 18.4633 13.5 18.4633M8.56002 18.4633H12.0917C12.1735 18.4633 12.2519 18.4308 12.3097 18.373C12.3675 18.3152 12.4 18.2368 12.4 18.155V15.01C12.4002 14.9695 12.3925 14.9294 12.3772 14.8919C12.3619 14.8544 12.3394 14.8203 12.3109 14.7915C12.2824 14.7627 12.2485 14.7398 12.2112 14.7241C12.1739 14.7084 12.1338 14.7002 12.0934 14.7H8.56002C8.47781 14.7 8.39896 14.7327 8.34082 14.7908C8.28268 14.8489 8.25002 14.9278 8.25002 15.01V18.155C8.25002 18.325 8.39002 18.4633 8.56002 18.4633ZM3.69336 18.4633H7.22669C7.30818 18.4629 7.38617 18.4302 7.44364 18.3724C7.5011 18.3147 7.53336 18.2365 7.53336 18.155V15.01C7.53358 14.9695 7.52582 14.9294 7.51052 14.8919C7.49523 14.8544 7.4727 14.8203 7.44423 14.7915C7.41575 14.7627 7.38188 14.7398 7.34456 14.7241C7.30723 14.7084 7.26718 14.7002 7.22669 14.7H3.69336C3.61187 14.7004 3.53387 14.7331 3.47641 14.7909C3.41895 14.8487 3.38669 14.9268 3.38669 15.0083V18.155C3.38669 18.325 3.52169 18.4633 3.69336 18.4633ZM39.605 16.4833C39.4967 16.3983 38.485 15.6333 36.3483 15.6333C35.785 15.635 35.2217 15.6833 34.665 15.7783C34.2517 12.945 31.91 11.5617 31.805 11.5017L31.2317 11.17L30.855 11.715C30.3817 12.445 30.0383 13.2517 29.835 14.0983C29.4517 15.715 29.685 17.235 30.5067 18.5333C29.515 19.0867 27.9233 19.2217 27.6 19.2333H1.25169C0.920885 19.2338 0.603702 19.3651 0.369472 19.5987C0.135242 19.8324 0.00301623 20.1492 0.00169504 20.48C-0.0291688 22.788 0.361686 25.0823 1.15503 27.25C2.06336 29.63 3.41336 31.3833 5.17169 32.4566C7.13836 33.6616 10.3384 34.3516 13.9634 34.3516C15.6017 34.3566 17.235 34.2083 18.8467 33.9083C21.0848 33.4972 23.2383 32.7147 25.2183 31.5933C26.8517 30.6483 28.3183 29.4466 29.5683 28.0333C31.655 25.67 32.8983 23.0383 33.8233 20.7H34.1917C36.4783 20.7 37.8833 19.785 38.6583 19.0183C39.1733 18.53 39.575 17.935 39.8367 17.275L40 16.795L39.605 16.4833Z" fill="#2496ED"/>
</svg>
