<svg width="40" height="40" viewBox="0 0 40 40" fill="none" xmlns="http://www.w3.org/2000/svg">
<path d="M40 30.98C39.4178 31.2002 38.7752 31.1997 38.1934 30.9786C37.6116 30.7575 37.1307 30.3312 36.8417 29.78L31.0917 21.8283L30.2583 20.7166L23.5867 29.79C23.315 30.3181 22.8603 30.7291 22.3075 30.9463C21.7548 31.1635 21.1418 31.1719 20.5833 30.97L29.18 19.4366L21.1833 9.01832C21.7583 8.81111 22.3872 8.80836 22.9639 9.01054C23.5407 9.21272 24.0302 9.60747 24.35 10.1283L30.31 18.1783L36.3033 10.1617C36.5771 9.64297 37.032 9.24297 37.5814 9.0377C38.1308 8.83244 38.7365 8.83621 39.2833 9.04832L36.18 13.1667L31.9767 18.6383C31.8599 18.7424 31.7665 18.8701 31.7026 19.0128C31.6386 19.1556 31.6056 19.3102 31.6056 19.4666C31.6056 19.6231 31.6386 19.7777 31.7026 19.9205C31.7665 20.0632 31.8599 20.1909 31.9767 20.295L39.9833 30.9816L40 30.98ZM0.00335333 19.2933L0.703353 15.835C2.62669 8.99665 10.4667 6.15166 15.86 10.385C19.0183 12.8667 19.8067 16.38 19.6517 20.34H1.86002C1.57169 27.4116 6.67502 31.6816 13.2 29.5C14.2578 29.1192 15.2046 28.482 15.9556 27.6455C16.7066 26.809 17.2384 25.7992 17.5033 24.7066C17.8483 23.5966 18.4167 23.4066 19.46 23.7266C19.2862 25.0806 18.8075 26.3775 18.0601 27.5198C17.3127 28.6621 16.316 29.6201 15.145 30.3216C13.2107 31.3797 10.9914 31.799 8.80439 31.5198C6.61738 31.2405 4.57468 30.2768 2.96835 28.7666C1.38007 26.979 0.420147 24.7208 0.23502 22.3366C0.23502 21.945 0.101687 21.5783 0.0116867 21.2266C0.00357338 20.5828 -0.000315595 19.9389 1.99938e-05 19.295L0.00335333 19.2933ZM1.88169 18.8166H17.9717C17.8717 13.69 14.6367 10.0533 10.3217 10.02C5.51835 9.95332 2.08169 13.51 1.87002 18.7933L1.88169 18.8166Z" fill="#808080"/>
</svg>
