<svg width="40" height="40" viewBox="0 0 40 40" fill="none" xmlns="http://www.w3.org/2000/svg">
<path d="M6.85727 33.3339C6.85727 29.652 9.79948 26.6672 13.4288 26.6672H20.0004V33.3339C20.0004 37.0159 17.0582 40.0007 13.4288 40.0007C9.79948 40.0007 6.85727 37.0159 6.85727 33.3339Z" fill="#24CB71"/>
<path d="M20.0004 0V13.3336H26.5719C30.2013 13.3336 33.1435 10.3487 33.1435 6.66679C33.1435 2.98485 30.2013 0 26.5719 0H20.0004Z" fill="#FF7237"/>
<path d="M26.5172 26.6672C30.1465 26.6672 33.0887 23.6823 33.0887 20.0004C33.0887 16.3184 30.1465 13.3336 26.5172 13.3336C22.8878 13.3336 19.9456 16.3184 19.9456 20.0004C19.9456 23.6823 22.8878 26.6672 26.5172 26.6672Z" fill="#00B6FF"/>
<path d="M6.85727 6.66679C6.85727 10.3487 9.79948 13.3336 13.4288 13.3336H20.0004V0H13.4288C9.79948 0 6.85727 2.98485 6.85727 6.66679Z" fill="#FF3737"/>
<path d="M6.85727 20.0004C6.85727 23.6823 9.79948 26.6672 13.4288 26.6672H20.0004V13.3336H13.4288C9.79948 13.3336 6.85727 16.3184 6.85727 20.0004Z" fill="#874FFF"/>
</svg>
