<svg width="40" height="40" viewBox="0 0 40 40" fill="none" xmlns="http://www.w3.org/2000/svg">
<path d="M11.9533 33.9333C10.43 32.7333 8.80334 31.5833 7.69334 29.9666C5.35668 27.1133 3.55668 23.81 2.32668 20.3383C1.58334 18.08 1.32668 15.6583 0.37001 13.4883C-0.633324 11.915 0.541676 10.1916 2.26668 9.68831C3.03334 9.54331 4.38668 8.81831 2.75501 9.33665C1.29168 10.41 1.15001 8.36164 2.65001 8.23331C3.67501 8.09664 4.05001 7.25831 3.70001 6.50498C2.60001 5.78831 6.36668 4.99998 4.47168 3.93164C2.50001 1.79998 7.23334 1.39164 6.06668 3.80831C5.78834 5.66664 9.37334 3.46664 8.54168 5.61331C9.38668 6.64498 11.7083 5.84664 11.65 7.29498C12.8833 7.37831 13.305 8.41498 14.4617 8.49498C15.6617 9.03664 17.8317 9.46164 18.2383 10.8116C17.05 11.755 14.2983 8.86998 14.1667 11.475C14.525 15.325 14.4333 19.29 15.84 22.955C16.5067 25.175 18.1233 26.9216 19.58 28.6516C20.975 30.345 22.865 31.535 24.7917 32.54C26.4817 33.3366 28.3033 33.865 30.1467 34.1966C30.8933 33.625 32.2133 31.5016 33.3767 32.3966C33.4317 33.4033 31.0633 34.5016 33.265 34.39C34.5583 34 35.455 35.39 36.52 34.1366C37.5 35.2983 40.5967 33.3933 39.8983 35.77C38.955 36.3766 37.5783 36.01 36.6333 36.8466C35.075 36.0683 33.8333 37.5433 32.1083 37.3566C30.1908 37.6881 28.2477 37.8499 26.3017 37.84C23.115 37.59 19.86 37.4833 16.8283 36.3733C15.1217 35.8783 13.455 34.905 11.9533 33.9333ZM14.645 35.1C16.3117 35.82 17.9417 36.58 19.7683 36.81C22.6683 37.21 25.6633 37.8333 28.5733 37.2666C27.2567 36.6716 25.8933 37.5 24.5817 36.8416C23.0083 37.18 21.32 36.755 19.72 36.5466C17.9 35.7366 15.9367 35.18 14.235 34.1266C12.1067 33.35 15.335 35.1233 15.91 35.2683C17.24 36.0233 14.4483 34.88 14.0533 34.5666C12.94 33.9416 12.7967 34.0716 13.9433 34.7066C14.175 34.84 14.4033 34.9833 14.6433 35.0983L14.645 35.1ZM11.4717 32.8566C13.0883 33.455 11.465 31.72 10.7217 31.82C10.395 31.2516 9.47001 30.8916 10.1217 30.5866C8.94834 30.9933 8.89334 29.0366 8.33834 29.315C7.09834 28.9233 7.85501 27.5316 6.37834 26.6816C6.24334 25.7816 4.90834 25.0016 4.48168 23.645C4.29334 22.9516 2.97334 20.9566 3.78501 22.8116C4.47501 24.5983 5.69001 26.1283 6.70168 27.6566C7.48501 29.1116 8.41334 30.6333 9.84334 31.54C10.3267 32.0033 10.79 32.7116 11.4717 32.8566ZM6.81668 27.745C7.11168 28.2733 6.87168 27.5016 6.81668 27.745ZM13.4067 33.5733C13.765 33.4133 12.89 33.3733 13.4067 33.5733ZM14.2833 33.8933C14.1933 33.4516 13.8833 34.14 14.2833 33.8933ZM15.3833 34.3516C15.9033 33.8516 14.5767 34.0383 15.3833 34.3516ZM17.2617 35.4016C17.58 34.9316 16.245 35.2233 17.2617 35.4016ZM13.65 32.88C14.4617 32.355 12.6 32.8733 13.65 32.88ZM14.4733 33.29C14.45 33.0133 14.18 33.415 14.4733 33.29ZM18.59 35.86C19.2517 36.2766 22.4567 36.7766 20.4483 36.0316C20.115 36.1016 16.7317 35.075 18.5883 35.86H18.59ZM12.055 30.77C11.9883 30.4916 11.0283 30.4616 12.055 30.77ZM13.9717 31.8866C14.4717 31.5366 12.9367 31.62 13.9717 31.8866ZM15.5817 32.875C16.2983 32.605 14.4217 32.6033 15.5817 32.875ZM11.275 29.92C12.0517 30.5166 14.4083 29.9966 12.465 29.565C11.5817 29.0933 9.58668 28.7716 10.945 29.8483L11.275 29.92ZM16.675 33.2166C16.9967 32.6666 15.3167 32.9 16.675 33.2166ZM15.035 31.9116C16.935 32.45 13.4383 30.7116 14.5667 31.715L14.8167 31.8283L15.035 31.9116ZM18.3233 33.8116C20.1233 33.8283 16.6983 33.5666 18.3233 33.8116ZM10.5833 28.8783C10.5133 28.545 10.14 28.9083 10.5833 28.8783ZM21.3667 35.52C21.4133 34.915 20.7783 35.97 21.3667 35.52ZM13.65 30.76C13.5433 30.4416 13.09 30.7466 13.65 30.76ZM10.7533 28.67C11.7867 28.6083 9.34001 28.215 10.7533 28.67ZM7.32001 26.45C7.19168 25.955 6.19668 25.56 7.32001 26.45ZM16.3317 32.175C16.2417 32.2216 16.1417 31.9583 16.3317 32.175ZM21.9417 35.6166C21.925 35.2883 21.6367 35.7416 21.9417 35.6166ZM15.835 31.6616C15.935 31.2366 14.955 31.5333 15.835 31.6616ZM11.6583 29.0083C12.425 28.925 10.425 28.49 11.6583 29.0083ZM18.7267 33.4033C19.9233 32.9283 17.56 33.17 18.7267 33.4033ZM15.05 30.9083C16.4283 31.085 13.4083 29.97 14.7483 30.8083L15.05 30.9083ZM19.8433 33.855C21.1317 33.085 20.7067 35.6583 22.0283 34.0716C23.3317 33.1216 20.9033 35.25 22.5117 34.2433C23.6717 33.465 25.3883 34.61 26.4717 34.985C27.2517 34.9466 28.01 35.66 28.81 35.2266C30.3483 34.81 25.8 34.61 26.9933 33.8766C25.585 34.285 24.5433 33.3866 23.8517 32.485C22.2717 32.1183 20.445 31.3133 19.6567 29.915C19.3367 29.39 20.1233 29.9883 19.38 29.1316C18.43 28.285 17.9533 27.3233 17.3133 26.295C16.5517 25.8883 16.4633 24.69 16.385 26.255C16.3917 25.2666 15.4633 24.6016 15.2383 24.8783C15.235 23.9266 16.23 24.4033 15.5317 23.7C15.3817 22.7133 14.8883 21.6833 14.74 20.5716C14.51 20.035 14.7067 18.8866 13.9517 20.1016C13.6767 21.385 13.86 18.5233 14.2883 19.4683C14.85 18.5016 14.0883 18.6183 14.055 18.7516C14.4217 17.9383 14.2883 16.785 13.96 17.225C14.155 16.3633 14.2683 14.055 13.6683 14.465C14.0317 13.565 14.3583 10.3433 12.7783 11.5716C12.1383 11.58 11.0317 11.805 10.5067 12.065C12.15 12.97 10.34 12.3916 9.67334 12.2483C9.58668 13.085 8.92334 12.7233 8.09668 12.7316C9.41834 12.895 7.45334 14.0816 6.69501 13.6216C5.71168 14.0916 7.54501 15.2666 6.71501 15.63C6.81501 16.1766 5.20668 15.43 5.33168 16.6966C4.37668 16.295 5.20168 18.1966 5.68001 17.5533C7.30501 17.9933 6.82334 18.9966 6.86334 19.9483C6.60001 20.5033 5.55668 18.6433 6.63001 18.73C5.78501 17.3516 5.69501 18.23 4.99001 18.8716C4.82334 18.9183 6.78834 19.7833 5.55668 20.21C6.64001 20.3766 6.67001 21.3266 6.89001 21.9266C7.54001 22.605 7.40668 21.1766 8.18834 21.9933C7.69501 21.2666 5.57668 19.9466 7.28168 20.37C7.27334 19.6366 6.97334 19.0483 7.49668 19.0633C8.01334 18.1266 6.95501 21.375 8.12168 20.1833C8.44334 20.0416 8.52168 19.245 9.10501 20.2583C9.94668 21.0883 9.40834 21.6883 8.22001 20.93C8.43168 21.6516 9.81001 21.9083 9.55168 23.0383C9.82668 24.03 10.21 23.665 10.545 23.6083C10.8083 24.5716 10.9567 23.8633 10.97 23.4033C12.17 23.6616 11.89 24.37 12.2667 24.87C13.095 25.2433 11.08 22.3333 12.5033 23.9933C14 25.3433 13.065 25.91 11.72 25.6933C12.57 25.625 12.845 26.8433 13.9083 26.8C14.8783 27.2616 15.5333 29.0333 13.8633 28.295C13.2833 27.7733 11.23 27.1283 12.9083 28.1216C14.4567 28.8383 15.6833 29.2683 17.1767 30.1666C18.2433 30.93 18.7067 31.8033 19.11 31.9766C18.2133 32.405 16.405 31.6333 17.7483 31.3966C16.91 31.245 15.9683 30.8216 16.77 31.8633C17.4533 32.435 19.1867 32.3733 19.4983 32.4383C19.2333 33.0183 18.7817 33.065 19.5083 33.11C18.6983 33.5433 19.7683 33.6083 19.8433 33.855ZM18.1867 29.175C17.6933 28.6583 17.565 27.6916 18.0983 28.5333C18.3717 28.6433 18.9733 30.1116 18.1867 29.175ZM23.5833 32.6033C23.8917 32.585 23.5933 32.8366 23.5833 32.6033ZM17.4067 27.91C17.585 28.51 17.39 27.13 17.4067 27.91ZM16.87 27.1883C17.6533 27.5283 16.25 25.9883 16.87 27.1883ZM10.37 22.7016C10.735 22.6016 10.55 23.325 10.37 22.7016ZM15.5433 25.505C15.8067 26.2116 15.7667 24.665 15.5433 25.505ZM11.89 22.9633C12.4283 23.3966 11.6317 22.5 11.89 22.9633ZM15.0267 23.97C14.44 22.6533 15.4433 23.25 15.1567 24.1866L15.0267 23.97ZM9.61668 20.3616C9.35334 19.9283 8.92001 18.6616 9.06001 18.275C9.18668 18.905 10.4 20.9866 9.65501 19.1383C8.83168 17.5883 10.6383 19.6416 10.825 20.0283C10.9083 20.4116 10.3167 19.9233 10.7183 20.825C9.98501 19.7966 10.285 21.3916 9.61668 20.3616ZM7.94501 19.21C8.32834 19.8983 8.01168 18.205 7.94501 19.21ZM8.69501 19.4683C9.30501 20.525 9.05501 18.71 8.69501 19.4683ZM6.88834 18.0683C6.26501 17.4516 5.81501 16.88 6.91668 17.685C7.34168 17.7016 5.97334 16.3883 7.01668 17.2683C8.11668 17.4683 7.56168 19.0716 6.88834 18.0683ZM7.83834 18.0433C8.20001 17.685 8.03001 18.3966 7.83834 18.0433ZM8.42168 18.2316C9.08834 18.6616 7.87501 17.2033 8.42168 18.2316ZM7.26001 17.12C5.45001 15.51 9.53501 17.9633 7.55501 17.42L7.26001 17.12ZM12.4433 20.1333C11.66 19.6633 12.2383 16.8266 12.505 18.7666C13.2667 18.52 12.4633 19.7666 13.03 19.7566C12.9417 20.545 12.6867 20.8283 12.4467 20.1333H12.4433ZM14.36 21.2666C14.525 21.85 14.44 20.4116 14.36 21.2666ZM14.0267 20.9366C14.1167 20.57 14.0383 21.3666 14.0267 20.9366ZM7.61668 16.5916C6.45501 14.9866 10.995 18.2133 8.36168 16.9983C8.08668 16.9266 7.75501 16.8983 7.61668 16.5916ZM11.31 18.55C11.555 18.7733 11.2 17.2 11.31 18.55ZM14.1133 20.3483C14.33 19.5783 14.13 20.8566 14.1133 20.3483ZM7.79334 15.9783C8.48501 15.8316 10.6567 17.1933 8.66001 16.3683C8.44001 16.1216 7.96668 16.235 7.79334 15.9783ZM13.7267 18.9366C13.8 17.5533 14.14 18.1116 13.73 19.1333L13.7267 18.9366ZM8.30834 15.4983C8.59001 15.085 7.55834 13.6316 8.45668 14.9766C8.84334 15.285 9.57668 15.4933 8.92834 15.6216C9.94501 16.52 8.67834 15.865 8.30834 15.4983ZM13.4333 18.505C13.6283 16.9316 13.605 19.4266 13.4333 18.505ZM7.72001 14.045C7.93501 13.9533 7.83334 14.3316 7.72001 14.045ZM9.05668 14.8416C9.69001 15.6466 9.40001 14.1183 9.05668 14.8416ZM12.8283 16.94C12.9 17.3433 12.825 16.6616 12.8283 16.94ZM12.61 16.4566C13.0967 17.14 12.0867 15.1633 12.61 16.4566ZM12.2883 15.6066C12.5883 16.28 12.2 15.0733 12.2883 15.6066ZM12.8117 14.7566C12.4517 14.1233 13.265 11.9683 13.355 13.3066C12.9767 14.3483 13.2467 14.9316 13.51 13.5333C13.9983 12.4333 13.405 15.705 12.81 14.7583L12.8117 14.7566ZM13.3483 11.5516C13.505 11.36 13.3817 11.7833 13.3483 11.5516ZM12.45 29.24C12.4767 29.3566 12.2367 29.055 12.45 29.24ZM14.3 30.1733C15.325 30.44 15.32 30.015 14.3917 29.89C13.8917 29.4233 12.315 28.9316 13.725 29.8316C13.82 30.0683 14.1167 30.0633 14.2983 30.175L14.3 30.1733ZM10.6483 27.75C11.215 28.1716 12.7817 28.9483 11.455 27.91C11.9033 27.39 10.5983 27.1133 11.0317 26.7666C9.93168 26.0933 10.165 26.1533 10.935 26.1733C9.61168 25.5833 11.125 25.6266 11.0517 25.3233C10.5433 25.2233 8.51834 24.4233 9.71168 25.39C8.50168 24.7733 9.42334 25.62 9.05834 25.53C7.82001 25.1933 10.1583 26.4716 8.86168 26.155C9.57001 26.7166 10.7717 27.595 9.16168 26.75C8.94834 27.055 10.3117 27.5166 10.6483 27.75ZM12.5817 28.8616C14.9317 29.6183 11.43 27.935 12.5817 28.8616ZM22.4817 34.8583C22.515 34.3916 22.16 35.2583 22.4817 34.8583ZM23.5 35.2866C24.0417 34.7616 23.5217 36.125 24.4 35.1583C24.4083 34.4666 24.3717 34.0583 23.39 34.8983C23.12 35.0483 23 35.6866 23.5 35.2866ZM7.34668 25.1416C7.18001 24.4866 6.18001 24.4916 7.34668 25.1416ZM8.43334 25.855C8.03001 25.185 6.99334 25.2483 8.43334 25.855ZM14.6167 29.5833C15.22 30.1166 17.3867 29.9766 15.35 29.65C15.0467 29.2 13.4317 29.31 14.6167 29.5833ZM23.1117 34.8316C24.0417 34.0516 22.2117 35.1783 23.1117 34.8316ZM25.045 36.1583C25.05 35.9083 24.645 36.2683 25.045 36.1583ZM25.0467 35.8083C26.075 34.7183 24.05 35.8733 25.0467 35.8083ZM4.67501 22.905C3.79834 21.655 4.13001 21.0916 3.28334 20.0716C3.12334 19.2883 1.83334 17.5166 2.61668 19.395C3.33334 20.4933 3.54668 22.1933 4.67501 22.905ZM24.725 35.4616C26.6167 34.2383 23.9483 34.9283 24.725 35.4616ZM26.1683 36.0283C27.1183 35.215 25.5683 35.8583 26.1683 36.0283ZM7.02501 23.7583C7.29668 23.355 6.32501 23.7066 7.02501 23.7583ZM25.8667 35.64C26.785 35.0483 25.6567 35.14 25.7 35.6933L25.8667 35.64ZM13.4167 27.79C13.3833 27.39 12.9317 27.8233 13.4167 27.79ZM14.1833 28.235C13.9417 27.74 13.81 28.3133 14.1833 28.235ZM27.34 36.0416C28.515 35.1916 26.6267 35.8783 27.0933 36.2016L27.34 36.0416ZM26.89 35.825C27.8467 35.0216 25.8783 36.18 26.89 35.825ZM29.19 37.355C29.8333 36.925 28.4083 37.2166 29.19 37.355ZM7.61668 23.4666C8.47834 23.66 11.06 25.59 9.53668 23.6C8.75668 23.37 9.22501 21.4616 8.42834 21.8C8.96168 22.6916 8.86834 23.0716 7.74501 22.51C6.33668 21.8216 6.95501 22.85 7.22834 23.1333C6.85501 23.22 7.72668 23.46 7.61668 23.4666ZM3.69001 20.3666C3.84334 19.7283 2.26834 16.855 2.94668 18.9266C3.19001 19.36 3.16334 20.1833 3.69001 20.3666ZM10.8967 24.81C10.875 24.7566 10.4533 24.4383 10.8967 24.81ZM11.99 25.0633C11.99 24.3883 10.7817 24.79 11.99 25.0633ZM21.4583 31.035C21.2783 30.5716 20.745 31.025 21.4583 31.035ZM21.9133 31.3666C21.8467 31.1083 21.6517 31.4166 21.9133 31.3666ZM25.6667 33.7333C26.0267 33.4666 25.2167 33.7 25.6667 33.7333ZM5.65001 20.8666C6.68334 20.4666 4.54334 20.5833 5.65001 20.8666ZM20.6233 30.3033C20.6117 29.635 19.965 30.47 20.6233 30.3033ZM5.24001 19.9183C5.90501 19.6933 4.62834 19.7683 5.24001 19.9183ZM7.16668 20.8516C7.15501 20.63 6.96334 20.935 7.16668 20.8516ZM30.65 35.2516C31.5033 35.0783 33.4467 35.685 33.76 35.025C32.7267 35 30.1767 34.295 30.0567 35.1916L30.2833 35.23L30.65 35.2516ZM7.77834 21.005C7.79334 20.3266 7.25001 20.98 7.77834 21.005ZM2.71668 17.4916C2.48668 16.2 1.84168 17.295 2.71668 17.4916ZM3.92334 17.795C3.93834 17.3783 2.81834 17.4216 3.92334 17.795ZM4.61334 18.1333C4.45668 18.3366 4.41334 17.9716 4.61334 18.1333ZM8.95501 20.9166C9.15834 20.73 8.47168 20.7783 8.95501 20.9166ZM4.15501 17.37C4.03834 16.395 2.75501 17.2233 4.15501 17.37ZM1.67834 15.7633C1.64501 15.3133 1.43834 15.9333 1.67834 15.7633ZM2.04501 15.485C1.98668 14.9516 1.72834 15.5516 2.04501 15.485ZM4.07834 16.7C4.94168 16.3616 2.51168 16 3.90501 16.6333L4.07834 16.7ZM31.3017 33.515C31.8517 33.01 30.6017 33.3583 31.3017 33.515ZM34.5917 35.22C34.8117 34.5666 34.035 35.3033 34.5917 35.22ZM4.28834 15.6333C4.38001 15 3.60501 15.7583 4.28834 15.6333ZM1.39501 13.6966C1.24001 12.805 1.26168 11.24 2.74834 11.77C0.763343 12.1633 4.12168 14.2366 3.69834 12.6C4.53168 12.64 5.33168 12.1066 4.89168 12.9166C6.53668 12.7333 7.67501 11.31 9.26501 11.5083C10.5017 11.345 11.855 11.2216 13.1883 10.7233C14.285 10.6433 15.3383 9.46331 14.7383 8.76498C13.245 8.63831 11.68 8.82498 10.0267 9.15331C8.19668 9.53331 6.53334 10.2566 4.68501 10.5683C2.88501 10.81 5.04668 11.235 4.53168 11.3283C3.59168 11.655 5.65168 11.875 4.41001 12.2183C3.64334 12.0716 2.84334 11.8083 3.17168 11.0016C1.44668 11.2233 -0.0699904 11.94 1.29334 13.695H1.39334L1.39501 13.6966ZM5.55168 11.58C5.95668 10.09 7.71834 12.805 6.21501 11.7766C6.03501 11.6433 5.74001 11.5333 5.55168 11.5766V11.58ZM5.63001 10.8566C6.21334 10.4233 5.94001 11.1 5.63001 10.8566ZM6.37168 10.87C6.42501 10.185 8.06834 11.2333 6.64334 11.1166L6.37168 10.87ZM7.38501 10.4616C7.75501 10.0283 7.49168 10.845 7.38501 10.4616ZM7.64501 10.2883C8.26168 9.54831 11.1367 9.81664 9.03168 10.2166C8.46834 9.79164 8.03501 10.4666 7.64501 10.2883ZM11.395 9.70998C13.26 10.43 11.3033 7.68665 11.395 9.70998ZM12.4617 9.70331C12.85 8.68331 13.9717 9.29498 12.6417 9.49831C12.67 9.60664 12.6017 10.025 12.4617 9.70331ZM3.87001 15.1116C5.03168 14.4 2.63501 14.495 3.87001 15.1116ZM4.72834 15.3516C5.13668 14.9183 3.84334 15.175 4.72834 15.3516ZM2.19501 13.5516C2.86001 13.0433 1.41001 13.3583 2.19501 13.5516ZM36.5317 35.035C36.5517 34.4433 36.025 35.3016 36.5317 35.035ZM33.0433 32.6516C33.1433 31.9716 32.5933 32.7133 33.0433 32.6516ZM37.4933 35.265C38.4217 35.265 40.3067 34.9766 38.285 34.9766C37.9683 35.0266 36.4383 35.0166 37.4933 35.265ZM5.48334 14.9316C6.23334 14.8816 6.66001 14.1033 5.33834 14.1483C3.28834 13.9366 7.14501 14.8483 5.07501 14.5883C4.79668 14.7716 5.46834 14.9833 5.48334 14.9333V14.9316ZM6.14668 15.2683C6.06668 14.785 5.91334 15.525 6.14668 15.2683ZM6.93001 13.1733C7.25834 12.7683 6.48001 13.065 6.93001 13.1733ZM4.43001 8.99331C5.77334 8.53664 7.60834 8.02498 8.24168 9.21831C7.59668 8.44164 7.98168 7.67831 8.59168 8.81331C9.45168 9.96164 9.88334 8.29164 9.32168 7.90498C9.96001 8.69831 10.6867 9.07164 9.75001 7.95498C10.7667 6.73164 7.71168 8.11664 7.01668 8.10164C6.68334 8.25164 3.56334 8.89664 4.43001 8.99331ZM5.21668 7.48831C5.98334 6.90998 7.86334 7.83164 6.65668 6.91331C6.54001 6.80998 4.01334 7.60998 5.21668 7.48831ZM8.00668 7.60331C8.90334 7.62498 7.62168 6.39998 8.68834 6.95331C8.51334 6.38164 7.44501 6.27498 6.92168 6.04664C6.62834 6.56998 7.52334 7.60998 8.00668 7.60331ZM5.70668 5.06998C6.01668 4.64998 5.16334 5.28331 5.70668 5.06998ZM6.84668 5.34331C8.29001 5.15164 6.48001 4.72164 6.55668 5.32664L6.84668 5.34331ZM4.71834 3.67665C3.70168 2.34998 6.62834 3.89998 5.59668 2.50998C4.72668 1.81831 3.89168 3.28998 4.71834 3.67665ZM17.7583 10.7016C18.225 9.87498 15.8333 9.58831 17.445 10.41C17.595 10.46 17.5617 10.76 17.7583 10.7016Z" fill="#808080"/>
</svg>
