<svg width="40" height="40" viewBox="0 0 40 40" fill="none" xmlns="http://www.w3.org/2000/svg">
<path d="M39.2437 18.2169L21.7786 0.753742C20.7719 -0.251247 19.1419 -0.251247 18.1319 0.753742L14.5135 4.3787L19.1135 8.97866C20.1885 8.62033 21.4119 8.86199 22.2619 9.71365C23.1219 10.572 23.3586 11.8103 22.9919 12.8803L27.422 17.3136C28.497 16.9419 29.7336 17.1836 30.5887 18.0386C31.7903 19.2385 31.7903 21.1785 30.5887 22.3785C29.3903 23.5768 27.4536 23.5768 26.2553 22.3785C25.3569 21.4769 25.1319 20.1502 25.5819 19.0519L21.4336 14.9253V25.8001C21.7269 25.9435 22.0036 26.1385 22.2469 26.3801C23.4352 27.5818 23.4352 29.5184 22.2469 30.7134C21.0486 31.9151 19.0985 31.9151 17.8985 30.7134C16.7002 29.5151 16.7002 27.5818 17.8985 26.3835C18.2019 26.0835 18.5435 25.8568 18.9069 25.7068V14.7253C18.5452 14.5736 18.2002 14.3553 17.9069 14.0569C16.9985 13.1486 16.7802 11.8203 17.2468 10.7086L12.7268 6.16702L0.750008 18.1352C-0.250003 19.1435 -0.250003 20.7752 0.750008 21.7835L18.2169 39.245C19.2235 40.2517 20.8536 40.2517 21.8602 39.245L39.2437 21.8619C40.2521 20.8569 40.2521 19.2252 39.2437 18.2169Z" fill="#F05032"/>
</svg>
