<svg width="40" height="40" viewBox="0 0 40 40" fill="none" xmlns="http://www.w3.org/2000/svg">
<g clip-path="url(#clip0_1_6)">
<path d="M9.89333 7.82333C9.33333 7.82333 8.76833 7.95333 8.205 8.19333C7.63833 8.435 7.07833 8.77 6.52667 9.20167C5.94119 9.65946 5.39993 10.1711 4.91 10.73C4.38833 11.32 3.89333 11.9717 3.43167 12.67C2.97167 13.37 2.54333 14.115 2.13167 14.87H2.13V14.8717C1.73167 15.66 1.38333 16.4717 1.08 17.2967C0.78 18.1233 0.54 18.9517 0.35 19.7917C0.166667 20.625 0.0533333 21.4367 0.0166667 22.2333C0.00661977 22.2833 0.00104218 22.334 0 22.385L0 22.5433C0 22.9783 0.0633333 23.4267 0.125 23.8367V23.84L0.126667 23.8433C0.24 24.28 0.418333 24.6833 0.643333 25.0383C0.874055 25.3888 1.17975 25.6837 1.53833 25.9017C1.9 26.1317 2.32833 26.2467 2.83167 26.2467C3.27 26.2467 3.725 26.1467 4.19333 25.9383C4.65833 25.73 5.12167 25.4583 5.58333 25.14C6.03 24.82 6.47667 24.4533 6.90667 24.04C7.25167 23.72 7.56667 23.3867 7.87833 23.0567L7.55167 24.07C7.41 24.5583 7.25167 25.03 7.12333 25.4917C6.98167 25.9483 6.87 26.3583 6.775 26.7217C6.68 27.0817 6.615 27.325 6.615 27.4817V27.84C6.615 28.2417 6.65667 28.525 6.78833 28.7033C6.85382 28.7869 6.9384 28.8535 7.03498 28.8976C7.13156 28.9417 7.2373 28.9619 7.34333 28.9567C7.50404 28.9543 7.6594 28.8986 7.785 28.7983C7.92 28.6983 8.035 28.57 8.15 28.425V28.4217L8.15333 28.42C8.24833 28.275 8.345 28.12 8.42667 27.9567C8.51 27.7883 8.55667 27.64 8.605 27.5083L8.71667 27.1067L8.955 26.2817L9.27167 25.1783C9.39833 24.7667 9.50833 24.3533 9.65 23.9333L10.025 22.6833C10.145 22.2767 10.2583 21.9083 10.3633 21.5817C10.4683 21.2483 10.5567 20.9783 10.63 20.76C10.6633 20.6517 10.6967 20.5667 10.72 20.5033L10.7433 20.45L10.81 20.48L10.84 20.4C10.9667 20.0367 11.0917 19.6883 11.2183 19.3567C11.345 19.0233 11.4717 18.69 11.5683 18.3617C11.8152 17.6719 11.9393 16.9443 11.935 16.2117C11.9367 16.0658 11.9084 15.9211 11.8517 15.7867C11.8091 15.6709 11.738 15.5677 11.645 15.4867C11.5606 15.412 11.462 15.3553 11.355 15.32C11.2527 15.287 11.1458 15.2701 11.0383 15.27C10.8114 15.2734 10.5912 15.3473 10.4083 15.4817C10.1933 15.625 10.0333 15.8633 9.91333 16.185L8.99667 19.1267C8.84283 19.4248 8.66619 19.7107 8.46833 19.9817C7.65876 21.122 6.70026 22.1506 5.61833 23.0367C5.27333 23.32 4.945 23.5383 4.61833 23.71C4.36503 23.859 4.07866 23.9426 3.785 23.9533C3.59687 23.9591 3.41274 23.8983 3.265 23.7817C3.11196 23.6628 2.99438 23.5043 2.925 23.3233C2.84126 23.1164 2.78413 22.8997 2.755 22.6783C2.72386 22.4452 2.70827 22.2102 2.70833 21.975C2.70833 21.2867 2.81833 20.5183 3.03833 19.6517C3.25833 18.785 3.55833 17.9183 3.93667 17.02C4.315 16.12 4.75667 15.2533 5.24667 14.4017C5.735 13.55 6.255 12.7933 6.79 12.1317C7.32333 11.4717 7.85667 10.955 8.40667 10.5483C8.95167 10.1417 9.44 9.945 9.91 9.945C10.2041 9.94068 10.4927 10.0249 10.7383 10.1867C10.9917 10.35 11.2217 10.625 11.4383 11.0133C11.6617 11.445 11.8867 11.7783 12.08 12.0217C12.28 12.2717 12.5117 12.4 12.76 12.4C12.8948 12.4013 13.0279 12.3706 13.1485 12.3103C13.269 12.25 13.3735 12.1619 13.4533 12.0533C13.645 11.8233 13.7367 11.5083 13.7367 11.1267C13.7367 10.9667 13.72 10.7933 13.6867 10.615C13.6488 10.4151 13.5693 10.2255 13.4533 10.0583C12.93 9.275 12.3683 8.71333 11.77 8.35167H11.7667C11.2002 8.01093 10.5544 7.82848 9.89333 7.82333ZM28.1617 9.24833C27.92 9.25199 27.6838 9.32111 27.4783 9.44833L27.475 9.45C27.2258 9.62564 27.04 9.87697 26.945 10.1667L23.7967 18.0967L23.1017 19.8383C22.8467 20.4717 22.61 21.105 22.3567 21.7517C22.2405 22.0516 22.1425 22.3583 22.0633 22.67C21.9246 22.7942 21.7817 22.9137 21.635 23.0283C21.29 23.295 20.9633 23.4967 20.6533 23.6367H20.65C20.3433 23.7917 20.085 23.8517 19.8783 23.8517C19.7417 23.8517 19.65 23.8183 19.5917 23.7633C19.5333 23.7083 19.4983 23.6233 19.4983 23.4867C19.4983 23.1783 19.545 22.8367 19.6383 22.4617C19.7333 22.095 19.8583 21.71 20 21.3233C20.1358 20.9337 20.2882 20.55 20.4567 20.1733L20.9167 19.1C21.06 18.7667 21.1717 18.4633 21.2667 18.21C21.3513 18.0104 21.4014 17.798 21.415 17.5817C21.4185 17.3192 21.3347 17.063 21.1767 16.8533C21.1013 16.7526 21.0031 16.6714 20.89 16.6163C20.777 16.5612 20.6524 16.5339 20.5267 16.5367C20.4057 16.5339 20.2857 16.5594 20.1763 16.6112C20.0669 16.663 19.9712 16.7396 19.8967 16.835C19.7184 17.0438 19.5754 17.2802 19.4733 17.535C19.34 17.8247 19.228 18.1239 19.1383 18.43C19.045 18.7467 18.92 19.0433 18.7933 19.3217C18.605 19.7383 18.3833 20.195 18.1 20.6983C17.8228 21.1934 17.508 21.6665 17.1583 22.1133C16.8133 22.5467 16.4383 22.9117 16.0333 23.2033C15.6333 23.495 15.2083 23.6317 14.7833 23.6317C14.645 23.6317 14.5533 23.5817 14.505 23.485C14.4455 23.3691 14.4157 23.2402 14.4183 23.11C14.435 22.77 14.495 22.4117 14.605 22.0383C14.715 21.6683 14.84 21.3 14.9817 20.9383C15.1233 20.5883 15.2817 20.2317 15.4533 19.8967C15.6283 19.5617 15.7867 19.245 15.9433 18.9633V18.9617L16.3567 18.1783C16.47 17.9517 16.535 17.7733 16.5817 17.6283L16.5833 17.625C16.6 17.5583 16.6183 17.4733 16.6183 17.3817C16.6207 17.2569 16.5897 17.1337 16.5283 17.025V17.0233L16.5267 17.0217C16.465 16.9215 16.3838 16.8347 16.2878 16.7666C16.1919 16.6984 16.0833 16.6503 15.9683 16.625C15.8032 16.5732 15.628 16.5618 15.4575 16.5917C15.287 16.6215 15.1261 16.6918 14.9883 16.7967C14.7683 16.9483 14.6033 17.1833 14.4567 17.5067C13.9746 18.4968 13.5353 19.5072 13.14 20.535C12.8233 21.3767 12.6017 22.0583 12.4433 22.5833C12.3229 22.9647 12.2321 23.3547 12.1717 23.75V23.7517L12.1383 24.1367V24.14C12.1383 24.4967 12.1867 24.8067 12.2883 25.0567V25.06C12.4017 25.305 12.535 25.5033 12.7033 25.655C12.8761 25.8059 13.0815 25.9149 13.3033 25.9733C13.5233 26.04 13.7533 26.0717 13.9867 26.0717C14.505 26.0717 14.9833 25.975 15.4217 25.8133C15.86 25.6517 16.2567 25.4267 16.6117 25.1533C16.9617 24.8817 17.2783 24.5767 17.55 24.24C17.75 24.0067 17.9 23.765 18.05 23.5283C17.9833 23.895 17.92 24.2567 17.92 24.5517C17.92 25.1017 18.025 25.5017 18.2567 25.7467C18.3689 25.8638 18.5045 25.9561 18.6546 26.0176C18.8048 26.079 18.9662 26.1082 19.1283 26.1033C19.475 26.1033 19.86 26.0083 20.285 25.82C20.7067 25.6317 21.135 25.3833 21.5683 25.0767C21.6767 25.0017 21.78 24.9217 21.885 24.8417L21.8933 24.9017C21.9385 25.1103 22.0234 25.3084 22.1433 25.485L22.1467 25.4883C22.28 25.6533 22.43 25.7883 22.6317 25.8883C22.8367 25.9917 23.0867 26.04 23.3817 26.04C23.8033 26.04 24.2417 25.9417 24.6933 25.7483H24.6967C25.1433 25.54 25.5917 25.2833 26.0383 24.9483C26.485 24.6133 26.9467 24.215 27.3917 23.7867L27.4083 23.7717C27.3317 23.9483 27.2583 24.125 27.1783 24.3033C26.8133 25.11 26.4417 25.9233 26.055 26.755C25.6667 27.5883 25.2783 28.4117 24.915 29.235L24.9133 29.24L24.9117 29.2433C24.8597 29.3999 24.8019 29.5545 24.7383 29.7067C24.6783 29.86 24.5967 30.02 24.5467 30.2033C24.485 30.37 24.4217 30.535 24.3883 30.715C24.3383 30.8983 24.3217 31.0767 24.3217 31.24C24.3217 31.5867 24.42 31.8517 24.6083 31.985C24.8036 32.1174 25.0359 32.1845 25.2717 32.1767C25.475 32.1767 25.6617 32.1267 25.83 32.0433L25.8317 32.0417C25.9988 31.947 26.1473 31.8228 26.27 31.675C26.3967 31.525 26.5033 31.355 26.6 31.1617C26.6983 30.9667 26.7783 30.7583 26.8567 30.5533L26.86 30.5467V30.54C26.8733 30.4783 26.9217 30.3383 27 30.1333L27.27 29.4067L27.5867 28.5533L27.9183 27.6833L28.2017 26.9583C28.2817 26.7517 28.33 26.6083 28.36 26.5333C28.3917 26.47 28.44 26.3733 28.5017 26.2167L28.7233 25.695L28.9917 25.0783L29.2783 24.445L29.515 23.875L29.6867 23.4983L29.6883 23.4967C29.83 23.2133 30.0017 22.9 30.1917 22.5533C30.3967 22.2083 30.6167 21.8767 30.8517 21.5317C31.105 21.1983 31.355 20.8683 31.6233 20.555C31.8917 20.2433 32.1733 19.9767 32.4567 19.725C32.745 19.4917 33.0333 19.2883 33.325 19.15C33.5823 19.0164 33.8668 18.9434 34.1567 18.9367C34.3 18.9367 34.395 18.9667 34.4533 19.0017C34.4765 19.0237 34.4948 19.0504 34.5068 19.08C34.5189 19.1096 34.5245 19.1414 34.5233 19.1733C34.5233 19.3067 34.4517 19.5183 34.2833 19.7617C34.11 20.0283 33.9067 20.3133 33.655 20.6283C33.385 20.945 33.1167 21.2767 32.8167 21.6233C32.5167 21.9733 32.23 22.3217 31.96 22.67C31.7115 22.9912 31.4822 23.3268 31.2733 23.675V23.6767C31.1049 23.947 30.9889 24.2467 30.9317 24.56V24.5717C30.9302 24.584 30.9279 24.5963 30.925 24.6083C30.92 24.625 30.915 24.6317 30.915 24.6667V24.7617C30.915 25.19 31.0683 25.5367 31.3717 25.7717C31.6767 26.025 32.1067 26.1383 32.6383 26.1383C33.22 26.1383 33.755 26.025 34.255 25.7983C34.7517 25.575 35.2633 25.2717 35.7883 24.8717H35.79C36.315 24.4783 36.8567 24.01 37.4417 23.4667C38.01 22.925 38.6733 22.325 39.415 21.6667C39.6096 21.5129 39.7602 21.3105 39.8517 21.08C39.95 20.85 40 20.6217 40 20.3967C40.0035 20.2077 39.9563 20.0212 39.8633 19.8567C39.8236 19.7816 39.7641 19.7189 39.6912 19.6754C39.6183 19.6319 39.5349 19.6093 39.45 19.61C39.3546 19.6124 39.261 19.6369 39.1767 19.6817C39.0883 19.725 38.995 19.7817 38.8933 19.85C38.72 19.905 38.9217 19.955 38.9433 20.03C38.0467 20.8317 37.27 21.5083 36.655 22.04C36.0217 22.5933 35.49 23.02 35.0783 23.3533C34.7734 23.6 34.4539 23.8282 34.1217 24.0367C33.9017 24.1683 33.7333 24.2317 33.64 24.2317C33.51 24.2317 33.42 24.1983 33.38 24.16C33.356 24.1368 33.3373 24.1087 33.3249 24.0777C33.3126 24.0466 33.3069 24.0134 33.3083 23.98C33.3083 23.9683 33.325 23.92 33.3667 23.855C33.41 23.7883 33.475 23.7033 33.5617 23.6017L34.225 22.8267C34.495 22.525 34.765 22.1917 35.065 21.8267C35.365 21.46 35.6483 21.0817 35.9017 20.69C36.1683 20.3067 36.3767 19.9117 36.5517 19.5233C36.72 19.135 36.8117 18.765 36.8117 18.4133C36.817 18.1652 36.756 17.9201 36.635 17.7033C36.5205 17.5042 36.3627 17.3333 36.1733 17.2033C35.99 17.07 35.7767 16.97 35.5483 16.9017H35.5467C34.9705 16.7406 34.3564 16.7836 33.8083 17.0233C33.4565 17.17 33.1222 17.3556 32.8117 17.5767C32.4822 17.8064 32.1677 18.0569 31.87 18.3267C31.6532 18.5309 31.442 18.741 31.2367 18.9567L31.2967 18.6633C31.3217 18.5417 31.3383 18.4283 31.3533 18.3183V18.3167C31.37 18.2033 31.375 18.1233 31.375 18.0683C31.3876 17.8418 31.3124 17.6192 31.165 17.4467V17.445H31.1617C31.0167 17.295 30.7917 17.23 30.495 17.23C30.2917 17.23 30.095 17.3467 29.9283 17.5467C29.7563 17.7615 29.6093 17.9953 29.49 18.2433C29.3614 18.5028 29.249 18.77 29.1533 19.0433L28.9317 19.6733V19.675C28.855 19.94 28.77 20.21 28.6817 20.4833C28.6583 20.49 28.6367 20.4967 28.6133 20.5067C28.5266 20.5364 28.4487 20.5874 28.3867 20.655L28.3917 20.65C28.195 20.84 27.9733 21.0617 27.7267 21.2983C27.4817 21.535 27.2217 21.7717 26.9533 22.0083C26.6833 22.23 26.41 22.4667 26.1367 22.6867C25.8667 22.9033 25.6033 23.095 25.3517 23.2617C25.1017 23.43 24.8683 23.5617 24.6533 23.6633C24.4938 23.7476 24.3184 23.7976 24.1383 23.81C24.0383 23.81 23.9967 23.7867 23.9717 23.74H23.97C23.9302 23.6599 23.9119 23.5709 23.9167 23.4817C23.9167 23.2933 23.95 23.0767 24.0233 22.8317C24.0933 22.5883 24.1667 22.375 24.24 22.19L24.2867 22.14L24.91 20.5533C25.1467 19.945 25.4 19.31 25.685 18.6333L26.54 16.5433C26.8233 15.8317 27.11 15.1433 27.3783 14.4867L28.17 12.65C28.4067 12.09 28.6133 11.6183 28.7867 11.2367L28.785 11.24C28.8833 11.045 28.9467 10.8617 29.01 10.7067V10.7033C29.0672 10.5444 29.0982 10.3772 29.1017 10.2083C29.1017 9.88167 29 9.625 28.8017 9.47C28.6206 9.32392 28.3943 9.24553 28.1617 9.24833Z" fill="#CF4647"/>
</g>
<defs>
<clipPath id="clip0_1_6">
<rect width="40" height="40" fill="white"/>
</clipPath>
</defs>
</svg>
