<svg width="40" height="40" viewBox="0 0 40 40" fill="none" xmlns="http://www.w3.org/2000/svg">
<path d="M28.655 15.925C26.5483 6.625 21.5683 3.56833 21.0333 2.4C20.5667 1.74333 20.15 0.81 19.8083 0C19.7483 0.825 19.7167 1.14167 18.9367 1.97333C17.7317 2.91667 11.54 8.11 11.0367 18.6733C10.5667 28.5267 18.1533 34.3983 19.1833 35.1467L19.3 35.23C19.5145 36.8163 19.6979 38.4066 19.85 40H20.6517C20.8417 38.28 21.125 36.5733 21.5017 34.8833C22.1967 34.39 22.5083 34.1117 22.9183 33.7283C24.8599 31.9322 26.403 29.7485 27.4477 27.3186C28.4924 24.8886 29.0156 22.2665 28.9833 19.6217C29 18.265 28.8117 16.8517 28.655 15.925ZM19.7617 29.5833C19.7617 29.5833 19.7617 15.765 20.22 15.7667C20.575 15.7667 21.0367 33.5917 21.0367 33.5917C20.4017 33.5167 19.7617 30.6583 19.7617 29.5833Z" fill="#47A248"/>
</svg>
