<svg width="40" height="40" viewBox="0 0 40 40" fill="none" xmlns="http://www.w3.org/2000/svg">
<path d="M20 0L2.67502 10V30L20 40L37.325 30V10L20 0ZM30 27.65C30 28.825 28.9234 29.8 27.4517 29.8C26.4 29.8 25.2 29.375 24.45 28.45L14.45 16.5483V27.6483C14.45 28.85 13.5 29.7983 12.3267 29.7983H12.2C10.9984 29.7983 10.05 28.7983 10.05 27.6483V12.35C10.05 11.175 11.1 10.2 12.55 10.2C13.6267 10.2 14.85 10.625 15.6 11.55L25.55 23.4517V12.35C25.55 11.1483 26.55 10.2 27.7 10.2H27.825C29.025 10.2 29.975 11.2 29.975 12.35V27.65H30Z" fill="#009639"/>
</svg>
