<svg width="40" height="40" viewBox="0 0 40 40" fill="none" xmlns="http://www.w3.org/2000/svg">
<path d="M19.9967 40.0003C19.4617 40.0003 18.9283 39.8603 18.46 39.5886L13.5667 36.6936C12.8367 36.2853 13.1933 36.1403 13.4333 36.0553C14.4083 35.717 14.605 35.6386 15.6467 35.0486C15.755 34.987 15.8983 35.0103 16.01 35.077L19.77 37.3086C19.9067 37.3836 20.0983 37.3836 20.2233 37.3086L34.8817 28.8487C35.0183 28.7703 35.105 28.6136 35.105 28.452V11.5354C35.105 11.3704 35.0167 11.2154 34.8767 11.132L20.225 2.67874C20.09 2.60041 19.91 2.60041 19.7733 2.67874L5.125 11.1337C4.98334 11.2154 4.89334 11.3754 4.89334 11.5354V28.452C4.89334 28.6136 4.98334 28.767 5.125 28.8436L9.14 31.1636C11.3183 32.2536 12.6533 30.9703 12.6533 29.6803V12.9787C12.6533 12.742 12.8433 12.557 13.08 12.557H14.9383C15.17 12.557 15.3633 12.7437 15.3633 12.9787V29.6803C15.3633 32.5886 13.78 34.2553 11.0233 34.2553C10.1767 34.2553 9.50834 34.2553 7.64667 33.337L3.8 31.1253C2.85 30.577 2.26334 29.5503 2.26334 28.452V11.5354C2.26334 10.437 2.85167 9.41038 3.8 8.86372L18.4583 0.393749C19.3867 -0.13125 20.6183 -0.13125 21.5383 0.393749L36.195 8.86372C37.145 9.41205 37.735 10.437 37.735 11.5354V28.452C37.735 29.5503 37.145 30.5736 36.195 31.1253L21.5383 39.5886C21.0717 39.8603 20.54 40.0003 19.9967 40.0003ZM31.8317 23.322C31.8317 20.1553 29.6917 19.312 25.1867 18.717C20.635 18.1154 20.1717 17.8037 20.1717 16.7387C20.1717 15.8587 20.5633 14.6837 23.935 14.6837C26.9467 14.6837 28.0567 15.332 28.5133 17.362C28.5533 17.5537 28.7283 17.6937 28.925 17.6937H30.8267C30.945 17.6937 31.0567 17.642 31.1367 17.5587C31.2167 17.4687 31.26 17.3537 31.2483 17.232C30.9533 13.7354 28.63 12.1054 23.935 12.1054C19.755 12.1054 17.2617 13.8687 17.2617 16.827C17.2617 20.0353 19.7417 20.922 23.7533 21.3187C28.5533 21.7887 28.925 22.4903 28.925 23.4337C28.925 25.072 27.61 25.7703 24.5217 25.7703C20.6433 25.7703 19.79 24.797 19.5033 22.867C19.47 22.6603 19.2933 22.5087 19.0817 22.5087H17.1867C16.9517 22.5087 16.7633 22.6953 16.7633 22.9303C16.7633 25.4003 18.1067 28.3437 24.5217 28.3437C29.1683 28.3453 31.8317 26.517 31.8317 23.322Z" fill="#5FA04E"/>
</svg>
