<svg width="40" height="40" viewBox="0 0 40 40" fill="none" xmlns="http://www.w3.org/2000/svg">
<path d="M22.5458 0.16469C11.5919 -1.24033 1.56979 6.49979 0.164725 17.455C-1.24034 28.4085 6.49835 38.4286 17.4539 39.8353C28.4094 41.2403 38.4332 33.5002 39.8349 22.545C41.2416 11.5915 33.503 1.57138 22.5458 0.16469ZM26.6643 12.6399C26.2931 12.6448 25.9385 12.7943 25.6759 13.0566L18.2539 20.4783L17.7422 19.9667L16.6705 18.895C23.9858 11.6015 25.3042 11.5315 26.6643 12.6399ZM18.5589 20.7417L25.9593 13.3416C26.0563 13.2398 26.173 13.159 26.3023 13.1039C26.4316 13.0488 26.5708 13.0207 26.7114 13.0213C26.8519 13.0219 26.9909 13.0511 27.1198 13.1072C27.2486 13.1634 27.3647 13.2452 27.4609 13.3477C27.557 13.4502 27.6313 13.5713 27.679 13.7035C27.7268 13.8357 27.7471 13.9762 27.7387 14.1165C27.7303 14.2568 27.6933 14.3939 27.6301 14.5194C27.5669 14.645 27.4787 14.7563 27.371 14.8466L19.539 21.7217L18.5589 20.7417ZM19.1089 21.8984L17.2755 22.295C17.2536 22.3 17.2307 22.2974 17.2104 22.2877C17.1902 22.278 17.1738 22.2618 17.1639 22.2417C17.1527 22.2225 17.1483 22.2 17.1513 22.178C17.1543 22.156 17.1646 22.1356 17.1805 22.12L18.2556 21.045L19.1089 21.8984ZM14.4371 21.1334L16.3905 19.18L17.8556 20.6433L14.5571 21.3534C14.5296 21.3605 14.5005 21.3579 14.4747 21.3461C14.4488 21.3342 14.4279 21.3138 14.4154 21.2884C14.3999 21.2642 14.3935 21.2353 14.3975 21.2068C14.4015 21.1784 14.4155 21.1523 14.4371 21.1334ZM8.36011 31.2302C8.34345 31.2287 8.32724 31.224 8.31242 31.2162C8.29761 31.2084 8.28447 31.1978 8.27378 31.185C8.26309 31.1721 8.25505 31.1573 8.25013 31.1413C8.24521 31.1253 8.2435 31.1085 8.2451 31.0918C8.24826 31.0629 8.2612 31.0358 8.28177 31.0152H8.2851L9.86184 29.4385L11.8986 31.4752L8.36011 31.2302ZM12.402 29.1368C12.3264 29.1758 12.2661 29.2391 12.2308 29.3165C12.1954 29.3938 12.187 29.4808 12.207 29.5635L12.5453 31.0052C12.5562 31.0496 12.5522 31.0964 12.5339 31.1383C12.5156 31.1802 12.484 31.215 12.444 31.2371C12.404 31.2593 12.3578 31.2677 12.3126 31.261C12.2673 31.2544 12.2255 31.233 12.1936 31.2002H12.1886L10.6319 29.6435L10.1419 29.1518L16.4122 22.8884L19.4456 22.2334L20.9024 23.6901C18.8106 25.5268 15.9505 27.3585 12.402 29.1368ZM21.2007 23.4234H21.1974L19.799 22.025L27.631 15.1499C27.7034 15.0856 27.7698 15.0147 27.8294 14.9383C27.5827 17.18 24.4475 20.3467 21.2007 23.4234ZM27.296 12.6566L27.291 12.6532C26.7399 12.0995 26.4234 11.3548 26.4073 10.5738C26.3911 9.79283 26.6766 9.03565 27.2043 8.45967C27.732 7.8837 28.4614 7.53322 29.2408 7.4811C30.0203 7.42898 30.7898 7.67923 31.3895 8.17982L28.7061 10.8682C28.6875 10.8866 28.6727 10.9086 28.6626 10.9327C28.6526 10.9569 28.6474 10.9828 28.6474 11.009C28.6474 11.0352 28.6526 11.0611 28.6626 11.0853C28.6727 11.1095 28.6875 11.1314 28.7061 11.1499L30.7845 13.2282C30.2164 13.5102 29.5741 13.6067 28.9482 13.5042C28.3223 13.4016 27.7444 13.1051 27.296 12.6566ZM31.5929 12.6566C31.455 12.7927 31.3037 12.9144 31.1412 13.0199L29.1277 11.0082L31.6829 8.45315C32.7846 9.65317 32.7446 11.5065 31.5929 12.6566ZM31.4262 10.0832C31.3861 10.1122 31.3561 10.153 31.3403 10.1999C31.3244 10.2468 31.3236 10.2975 31.3378 10.3448C31.3972 10.465 31.4204 10.5998 31.4048 10.7329C31.3891 10.866 31.3352 10.9918 31.2495 11.0949C31.2304 11.1189 31.2163 11.1465 31.2079 11.176C31.1994 11.2056 31.1969 11.2365 31.2005 11.267C31.2041 11.2975 31.2136 11.327 31.2286 11.3538C31.2436 11.3806 31.2637 11.4042 31.2878 11.4232C31.3279 11.4546 31.377 11.4721 31.4279 11.4732C31.4616 11.4729 31.4948 11.4653 31.5253 11.4509C31.5558 11.4365 31.5829 11.4157 31.6045 11.3899C31.7477 11.2179 31.8376 11.0079 31.8634 10.7856C31.8892 10.5633 31.8496 10.3383 31.7495 10.1382C31.7321 10.1131 31.7098 10.0918 31.684 10.0755C31.6583 10.0591 31.6295 10.048 31.5994 10.0429C31.5693 10.0378 31.5385 10.0387 31.5087 10.0456C31.479 10.0525 31.4509 10.0653 31.4262 10.0832Z" fill="#FF6C37"/>
</svg>
