<svg width="40" height="40" viewBox="0 0 40 40" fill="none" xmlns="http://www.w3.org/2000/svg">
<path d="M30.8156 10.1993V14.4368C30.8156 17.7221 27.9995 20.4872 24.7883 20.4872H15.1514C12.5117 20.4872 10.3273 22.7218 10.3273 25.3364V34.4232C10.3273 37.0093 12.601 38.5305 15.1514 39.2724C18.2055 40.1606 21.1342 40.3211 24.7883 39.2724C27.2173 38.5768 29.6124 37.177 29.6124 34.4232V30.7863H19.9755V29.5739H34.4364C37.2405 29.5739 38.2854 27.6395 39.2605 24.7358C40.2678 21.7466 40.225 18.872 39.2605 15.0374C38.5675 12.2765 37.244 10.1993 34.4364 10.1993H30.8156ZM25.3955 33.2109C26.3957 33.2109 27.206 34.0214 27.206 35.0238C27.206 36.0297 26.3957 36.8478 25.3955 36.8478C24.3989 36.8478 23.5851 36.0297 23.5851 35.0238C23.5851 34.0214 24.3989 33.2109 25.3955 33.2109Z" fill="#FFD744"/>
<path d="M19.7618 0.000327176C18.1125 0.00790738 16.5373 0.147038 15.1514 0.3896C11.0686 1.10302 10.3273 2.59626 10.3273 5.35005V8.98697H19.9755V10.1993H6.70648C3.90246 10.1993 1.44718 11.8662 0.679205 15.0374C-0.206649 18.6722 -0.245942 20.9405 0.679205 24.7358C1.36503 27.561 3.00287 29.5739 5.80689 29.5739H9.12414V25.2141C9.12414 22.0644 11.8795 19.286 15.1514 19.286H24.7883C27.4709 19.286 29.6124 17.1014 29.6124 14.4368V5.35005C29.6124 2.76391 27.4066 0.821216 24.7883 0.3896C23.1309 0.116717 21.4112 -0.00725303 19.7618 0.000327176ZM14.5442 2.92544C15.5408 2.92544 16.3546 3.74354 16.3546 4.74946C16.3546 5.75181 15.5408 6.56236 14.5442 6.56236C13.544 6.56236 12.7338 5.75181 12.7338 4.74946C12.7338 3.74354 13.544 2.92544 14.5442 2.92544Z" fill="#356F9F"/>
</svg>
