<svg width="40" height="40" viewBox="0 0 40 40" fill="none" xmlns="http://www.w3.org/2000/svg">
<path d="M20 0C31.045 0 40 8.955 40 20C40 31.045 31.045 40 20 40C8.955 40 0 31.045 0 20C0 8.955 8.955 0 20 0ZM16.025 26.6633C16.3167 27.7383 16.285 28.7433 15.985 29.65L15.8767 29.95C15.8367 30.0517 15.79 30.15 15.7467 30.2433C15.5133 30.7267 15.2033 31.1767 14.8217 31.5933C13.6583 32.8583 12.035 33.3383 11.3383 32.935C10.5883 32.4983 10.9617 30.71 12.3117 29.285C13.7633 27.755 15.845 26.77 15.845 26.77V26.765L16.025 26.6633ZM32.5433 8.56167C31.64 5.00667 25.7483 3.83833 20.1733 5.82C16.8583 6.99833 13.2667 8.85 10.685 11.265C7.61333 14.1333 7.125 16.6333 7.32667 17.6783C8.03833 21.3633 13.0883 23.7733 15.165 25.5617V25.5717C14.5533 25.8717 10.0717 28.12 9.02167 30.4467C7.89667 32.8967 9.19667 34.6483 10.0467 34.8717C12.6717 35.5983 15.3717 34.2717 16.8217 32.1233C18.2217 30.0217 18.0983 27.3217 17.495 25.9967C18.3217 25.7717 19.295 25.6717 20.545 25.8233C24.0467 26.2233 24.7467 28.4233 24.595 29.3233C24.445 30.2217 23.7233 30.7467 23.4717 30.8967C23.2217 31.0483 23.1467 31.0967 23.17 31.1983C23.195 31.3483 23.3217 31.3483 23.52 31.3233C23.795 31.2733 25.3467 30.5733 25.4217 28.8717C25.4967 26.7217 23.445 24.3233 19.7967 24.3717C18.2967 24.3983 17.345 24.5233 16.6717 24.7983C16.6217 24.7233 16.57 24.6733 16.4967 24.6233C14.2467 22.1983 10.0717 20.4983 10.2467 17.2733C10.2967 16.0983 10.7217 13 18.2467 9.25C24.4217 6.17333 29.3483 7.025 30.1983 8.9C31.42 11.5733 27.5717 16.55 21.1467 17.2733C18.6967 17.5483 17.4217 16.6 17.095 16.2483C16.7467 15.8733 16.6967 15.8483 16.5717 15.925C16.3717 16.025 16.4967 16.35 16.5717 16.55C16.7717 17.05 17.5467 17.925 18.8983 18.375C20.0717 18.75 22.9483 18.9733 26.3983 17.625C30.2717 16.1267 33.2967 11.95 32.4217 8.45L32.5433 8.56167Z" fill="#CC6699"/>
</svg>
