<svg width="40" height="40" viewBox="0 0 40 40" fill="none" xmlns="http://www.w3.org/2000/svg">
<path d="M36.13 0.868909C34.41 -0.664418 32.33 -0.0477538 30.275 1.77557C29.9582 2.05929 29.654 2.3568 29.3633 2.66723C25.8483 6.39555 22.5867 13.3005 21.5733 18.5738C21.9683 19.3738 22.2767 20.3955 22.48 21.1755C22.5819 21.5634 22.673 21.9541 22.7533 22.3471C22.7533 22.3471 22.7217 22.2288 22.5933 21.8538L22.51 21.6105C22.4928 21.5656 22.4745 21.5211 22.455 21.4771C22.225 20.9438 21.5917 19.8188 21.3117 19.3288C21.0733 20.0338 20.8617 20.6921 20.685 21.2888C21.4917 22.7621 21.9817 25.2888 21.9817 25.2888C21.9817 25.2888 21.94 25.1238 21.7367 24.5521C21.5583 24.0471 20.6633 22.4788 20.45 22.1121C20.0883 23.4521 19.9433 24.3555 20.0733 24.5755C20.3267 25.0021 20.5667 25.7388 20.7767 26.5521C21.2533 28.3854 21.585 30.6188 21.585 30.6188L21.6133 30.9921C21.5507 32.5192 21.5819 34.0488 21.7067 35.5721C21.865 37.4821 22.1617 39.1221 22.54 40.0004L22.7983 39.8604C22.2417 38.1304 22.015 35.8621 22.115 33.2488C22.265 29.2521 23.185 24.4321 24.8833 19.4088C27.755 11.8255 31.7383 5.74055 35.3833 2.8339C32.0617 5.83389 27.5633 15.5505 26.2167 19.1472C24.71 23.1738 23.6417 26.9538 22.9983 30.5754C24.1083 27.1805 27.7 25.7221 27.7 25.7221C27.7 25.7221 29.4617 23.5488 31.52 20.4455C30.2867 20.7271 28.2617 21.2088 27.5833 21.4938C26.5833 21.9121 26.3133 22.0555 26.3133 22.0555C26.3133 22.0555 29.555 20.0822 32.335 19.1888C36.1583 13.1672 40.325 4.61222 36.13 0.868909ZM5.17499 1.7739C4.36452 1.77698 3.58816 2.10041 3.01523 2.67365C2.4423 3.24689 2.11929 4.02343 2.11665 4.83389V32.5138C2.11929 33.3239 2.44241 34.1001 3.01543 34.6728C3.58846 35.2455 4.36483 35.5682 5.17499 35.5704H20.8717C20.754 34.0695 20.7251 32.563 20.785 31.0588C20.775 30.9554 20.7667 30.8238 20.7583 30.7254C20.555 29.3932 20.292 28.0708 19.97 26.7621C19.7683 25.9788 19.5117 25.2655 19.355 25.0005C19.1617 24.6721 19.1917 24.4838 19.1933 24.2805C19.1933 24.0805 19.2183 23.8721 19.255 23.6371C19.3537 23.05 19.4839 22.4686 19.645 21.8955L20.0067 21.8488C19.9783 21.7905 19.9833 21.7405 19.955 21.6871L19.8867 21.0521C20.0862 20.3848 20.2984 19.7214 20.5233 19.0622L20.8567 19.0305C20.8433 19.0038 20.84 18.9672 20.8267 18.9422L20.755 18.4155C21.805 12.9489 25.0667 6.01055 28.755 2.09724C28.865 1.98224 28.9767 1.8839 29.085 1.7739H5.17499Z" fill="#003B57"/>
</svg>
