<svg width="40" height="40" viewBox="0 0 40 40" fill="none" xmlns="http://www.w3.org/2000/svg">
<path d="M38.5857 4.22755L30.3502 0.245485C29.3854 -0.204662 28.2483 -0.0315285 27.5247 0.730258L11.7429 15.1696L4.88578 9.94095C4.23108 9.45618 3.33517 9.49081 2.74939 10.0448L0.544074 12.0532C-0.145086 12.6765 -0.179544 13.7499 0.4407 14.4078C0.475158 14.4424 0.509616 14.477 0.544074 14.5117L6.50531 19.9827L0.544074 25.4537C-0.145086 26.077 -0.179544 27.1504 0.4407 27.8083C0.475158 27.8429 0.509616 27.8776 0.544074 27.9122L2.74939 29.9205C3.33517 30.4746 4.23108 30.5092 4.88578 30.0244L11.7429 24.7958L27.5247 39.2697C28.2828 40.0315 29.4199 40.2047 30.3502 39.7545L38.5857 35.7724C39.4471 35.3569 39.9985 34.4566 39.9985 33.5217V6.47829C40.0329 5.50874 39.4816 4.64307 38.5857 4.22755ZM30.0401 29.1241L18.0487 19.9827L30.0057 10.8412V29.1241H30.0401Z" fill="#007ACC"/>
</svg>
